<?xml version="1.0" encoding="UTF-8" standalone="no"?>
<!DOCTYPE svg PUBLIC "-//W3C//DTD SVG 1.1//EN"
 "http://www.w3.org/Graphics/SVG/1.1/DTD/svg11.dtd">
<!-- Generated by graphviz version 3.0.0 (20221109.1736)
 -->
<!-- Pages: 1 -->
<svg width="852pt" height="286pt"
 viewBox="0.00 0.00 852.00 286.00" xmlns="http://www.w3.org/2000/svg" xmlns:xlink="http://www.w3.org/1999/xlink">
<g id="graph0" class="graph" transform="scale(1 1) rotate(0) translate(36 250)">
<polygon fill="white" stroke="transparent" points="-36,36 -36,-250 816,-250 816,36 -36,36"/>
<!-- db -->
<g id="node1" class="node">
<title>db</title>
<polygon fill="none" stroke="black" points="464,-125 0,-125 0,-121 -4,-121 -4,-117 0,-117 0,-95 -4,-95 -4,-91 0,-91 0,-87 464,-87 464,-125"/>
<polyline fill="none" stroke="black" points="0,-121 4,-121 4,-117 0,-117 "/>
<polyline fill="none" stroke="black" points="0,-95 4,-95 4,-91 0,-91 "/>
<text text-anchor="middle" x="232" y="-109.8" font-family="Times,serif" font-size="14.00">db</text>
<text text-anchor="middle" x="232" y="-94.8" font-family="Times,serif" font-size="14.00">(ghcr.io/b3partners/brmo&#45;service&#45;db:${BRMO_VERSION:&#45;snapshot})</text>
</g>
<!-- brmo&#45;db -->
<g id="node2" class="node">
<title>brmo&#45;db</title>
<path fill="none" stroke="black" d="M181,-32.73C181,-34.53 164.42,-36 144,-36 123.58,-36 107,-34.53 107,-32.73 107,-32.73 107,-3.27 107,-3.27 107,-1.47 123.58,0 144,0 164.42,0 181,-1.47 181,-3.27 181,-3.27 181,-32.73 181,-32.73"/>
<path fill="none" stroke="black" d="M181,-32.73C181,-30.92 164.42,-29.45 144,-29.45 123.58,-29.45 107,-30.92 107,-32.73"/>
<text text-anchor="middle" x="144" y="-14.3" font-family="Times,serif" font-size="14.00">brmo&#45;db</text>
</g>
<!-- db&#45;&gt;brmo&#45;db -->
<g id="edge1" class="edge">
<title>db&#45;&gt;brmo&#45;db</title>
<path fill="none" stroke="black" stroke-dasharray="5,2" d="M155.85,-80.75C151.73,-77.34 148.03,-73.44 145,-69 140.51,-62.42 139.11,-54.13 139.16,-46.2"/>
<polygon fill="black" stroke="black" points="154.1,-83.8 164.28,-86.74 158.16,-78.1 154.1,-83.8"/>
<polygon fill="black" stroke="black" points="142.65,-46.41 139.93,-36.17 135.67,-45.87 142.65,-46.41"/>
<text text-anchor="middle" x="222" y="-57.8" font-family="Times,serif" font-size="14.00">/var/lib/postgresql/data</text>
</g>
<!-- brmo&#45;db&#45;ssl -->
<g id="node3" class="node">
<title>brmo&#45;db&#45;ssl</title>
<path fill="none" stroke="black" d="M368.5,-32.73C368.5,-34.53 347.21,-36 321,-36 294.79,-36 273.5,-34.53 273.5,-32.73 273.5,-32.73 273.5,-3.27 273.5,-3.27 273.5,-1.47 294.79,0 321,0 347.21,0 368.5,-1.47 368.5,-3.27 368.5,-3.27 368.5,-32.73 368.5,-32.73"/>
<path fill="none" stroke="black" d="M368.5,-32.73C368.5,-30.92 347.21,-29.45 321,-29.45 294.79,-29.45 273.5,-30.92 273.5,-32.73"/>
<text text-anchor="middle" x="321" y="-14.3" font-family="Times,serif" font-size="14.00">brmo&#45;db&#45;ssl</text>
</g>
<!-- db&#45;&gt;brmo&#45;db&#45;ssl -->
<g id="edge2" class="edge">
<title>db&#45;&gt;brmo&#45;db&#45;ssl</title>
<path fill="none" stroke="black" stroke-dasharray="5,2" d="M284.33,-81.52C289.67,-77.81 294.71,-73.65 299,-69 305.04,-62.46 309.61,-54 312.97,-45.9"/>
<polygon fill="black" stroke="black" points="282.31,-78.66 275.73,-86.96 286.05,-84.57 282.31,-78.66"/>
<polygon fill="black" stroke="black" points="316.32,-46.95 316.5,-36.36 309.75,-44.53 316.32,-46.95"/>
<text text-anchor="middle" x="333" y="-57.8" font-family="Times,serif" font-size="14.00">/opt/ssl</text>
</g>
<!-- brmo -->
<g id="node4" class="node">
<title>brmo</title>
<polygon fill="none" stroke="black" points="745.5,-214 302.5,-214 302.5,-210 298.5,-210 298.5,-206 302.5,-206 302.5,-184 298.5,-184 298.5,-180 302.5,-180 302.5,-176 745.5,-176 745.5,-214"/>
<polyline fill="none" stroke="black" points="302.5,-210 306.5,-210 306.5,-206 302.5,-206 "/>
<polyline fill="none" stroke="black" points="302.5,-184 306.5,-184 306.5,-180 302.5,-180 "/>
<text text-anchor="middle" x="524" y="-198.8" font-family="Times,serif" font-size="14.00">brmo</text>
<text text-anchor="middle" x="524" y="-183.8" font-family="Times,serif" font-size="14.00">(ghcr.io/b3partners/brmo&#45;service:${BRMO_VERSION:&#45;snapshot})</text>
</g>
<!-- brmo&#45;&gt;db -->
<g id="edge5" class="edge">
<title>brmo&#45;&gt;db</title>
<path fill="none" stroke="black" stroke-dasharray="1,5" d="M463.5,-175.97C416.52,-161.98 351.3,-142.54 302.05,-127.87"/>
<polygon fill="black" stroke="black" points="303.01,-124.5 292.43,-125 301.01,-131.21 303.01,-124.5"/>
</g>
<!-- brmo&#45;logs -->
<g id="node5" class="node">
<title>brmo&#45;logs</title>
<path fill="none" stroke="black" d="M566,-120.73C566,-122.53 547.17,-124 524,-124 500.83,-124 482,-122.53 482,-120.73 482,-120.73 482,-91.27 482,-91.27 482,-89.47 500.83,-88 524,-88 547.17,-88 566,-89.47 566,-91.27 566,-91.27 566,-120.73 566,-120.73"/>
<path fill="none" stroke="black" d="M566,-120.73C566,-118.92 547.17,-117.45 524,-117.45 500.83,-117.45 482,-118.92 482,-120.73"/>
<text text-anchor="middle" x="524" y="-102.3" font-family="Times,serif" font-size="14.00">brmo&#45;logs</text>
</g>
<!-- brmo&#45;&gt;brmo&#45;logs -->
<g id="edge3" class="edge">
<title>brmo&#45;&gt;brmo&#45;logs</title>
<path fill="none" stroke="black" stroke-dasharray="5,2" d="M524,-165.6C524,-155.54 524,-144.25 524,-134.29"/>
<polygon fill="black" stroke="black" points="520.5,-165.97 524,-175.97 527.5,-165.97 520.5,-165.97"/>
<polygon fill="black" stroke="black" points="527.5,-134.12 524,-124.12 520.5,-134.12 527.5,-134.12"/>
<text text-anchor="middle" x="595.5" y="-146.8" font-family="Times,serif" font-size="14.00">/usr/local/tomcat/logs</text>
</g>
<!-- brmo&#45;data -->
<g id="node6" class="node">
<title>brmo&#45;data</title>
<path fill="none" stroke="black" d="M734,-120.73C734,-122.53 714.28,-124 690,-124 665.72,-124 646,-122.53 646,-120.73 646,-120.73 646,-91.27 646,-91.27 646,-89.47 665.72,-88 690,-88 714.28,-88 734,-89.47 734,-91.27 734,-91.27 734,-120.73 734,-120.73"/>
<path fill="none" stroke="black" d="M734,-120.73C734,-118.92 714.28,-117.45 690,-117.45 665.72,-117.45 646,-118.92 646,-120.73"/>
<text text-anchor="middle" x="690" y="-102.3" font-family="Times,serif" font-size="14.00">brmo&#45;data</text>
</g>
<!-- brmo&#45;&gt;brmo&#45;data -->
<g id="edge4" class="edge">
<title>brmo&#45;&gt;brmo&#45;data</title>
<path fill="none" stroke="black" stroke-dasharray="5,2" d="M648.11,-171.42C655.21,-167.6 661.92,-163.16 668,-158 675.37,-151.74 680.34,-142.56 683.66,-133.71"/>
<polygon fill="black" stroke="black" points="646.36,-168.38 638.92,-175.93 649.44,-174.66 646.36,-168.38"/>
<polygon fill="black" stroke="black" points="687.05,-134.62 686.75,-124.03 680.38,-132.49 687.05,-134.62"/>
<text text-anchor="middle" x="729.5" y="-146.8" font-family="Times,serif" font-size="14.00">/opt/brmo&#45;data</text>
</g>
</g>
</svg>
